<?xml version="1.0" encoding="UTF-8"?>
<svg version="1.1" xmlns="http://www.w3.org/2000/svg" width="800" height="800">
<path d="M0 0 C3.65108237 0.00918186 7.30209338 -0.00498315 10.95316076 -0.01591969 C18.07729812 -0.03357171 25.20126555 -0.02992502 32.32540917 -0.01826912 C38.12282883 -0.00918205 43.92020134 -0.0080334 49.71762609 -0.01236439 C50.54730093 -0.01297732 51.37697577 -0.01359025 52.23179227 -0.01422176 C53.91802098 -0.01550085 55.60424967 -0.0167977 57.29047835 -0.01811212 C73.04870767 -0.0294789 88.80684343 -0.01646581 104.5650574 0.00508934 C118.04388807 0.02295676 131.52258087 0.01985155 145.00140905 0.0014143 C160.70881904 -0.02006175 176.41614734 -0.02838063 192.12356997 -0.01613665 C193.80309501 -0.01486264 195.48262007 -0.01360516 197.16214514 -0.01236439 C198.40121609 -0.01143873 198.40121609 -0.01143873 199.66531879 -0.01049438 C205.44603972 -0.00706161 211.22670821 -0.01282471 217.00742102 -0.0222826 C224.06614618 -0.03357921 231.12469377 -0.03030351 238.18339896 -0.00915962 C241.77488743 0.001249 245.36608142 0.00565047 248.95756674 -0.00775623 C268.09727101 -0.07328134 286.90933004 0.52443285 304.75238562 8.21039867 C305.57230993 8.55288647 306.39223425 8.89537426 307.23700476 9.24824047 C320.60642062 15.00290774 331.73309873 22.7322005 342.43988562 32.52289867 C343.23910437 33.23961742 344.03832312 33.95633617 344.86176062 34.69477367 C356.18886971 45.37920991 364.16015204 58.39535165 370.43988562 72.52289867 C371.16304968 74.12198071 371.16304968 74.12198071 371.90082312 75.75336742 C379.58130665 94.11670533 380.03536198 112.5333025 379.96278429 132.15069246 C379.95361301 135.82904003 379.96776239 139.50731626 379.97870398 143.18564892 C379.99636691 150.36506698 379.99270433 157.54431652 379.98105341 164.72374082 C379.97197073 170.56552927 379.97081582 176.40727094 379.97514868 182.24906445 C379.97576161 183.08471422 379.97637454 183.92036399 379.97700605 184.78133649 C379.97828512 186.47964646 379.97958198 188.17795642 379.98089641 189.87626636 C379.99226639 205.75177635 379.97924502 221.62719353 379.95769495 237.50268829 C379.93982723 251.08531786 379.94293235 264.66781063 379.96136999 278.25043774 C379.98284032 294.0742931 379.99116809 309.89806738 379.97892094 325.72193527 C379.97764692 327.41353447 379.97638943 329.10513368 379.97514868 330.7967329 C379.97453158 331.62874413 379.97391447 332.46075535 379.97327867 333.31797904 C379.9698442 339.14374172 379.97561274 344.9694524 379.98506689 350.79520702 C379.99635708 357.90778331 379.99310096 365.02018334 379.97194391 372.13273978 C379.96152686 375.75245041 379.95714883 379.37186861 379.97054052 382.99157619 C380.03507673 402.01036175 379.30840309 420.02955978 371.75238562 437.77289867 C371.40989782 438.59733471 371.06741003 439.42177074 370.71454382 440.27118969 C364.97818218 453.67073882 357.24373764 464.80172716 347.43988562 475.52289867 C346.72316687 476.32211742 346.00644812 477.12133617 345.26801062 477.94477367 C334.57851774 489.27724356 321.56629663 497.22880602 307.43988562 503.52289867 C305.85820593 504.24606274 305.85820593 504.24606274 304.24457312 504.98383617 C285.75937115 512.78449685 266.58325958 513.11613303 246.82113504 513.0311383 C243.16195699 513.01986893 239.50283791 513.03202274 235.84366369 513.04098034 C228.70481839 513.05480627 221.56615177 513.04743705 214.42731521 513.03230476 C206.09261659 513.01531947 197.75796094 513.01867042 189.42325035 513.02239884 C174.54269192 513.02825753 159.66221851 513.01418249 144.78168249 512.98945141 C130.37995741 512.96551921 115.97834577 512.95845646 101.57660437 512.9689436 C85.84433438 512.98037928 70.11211667 512.98225154 54.37984729 512.9678455 C52.69927057 512.96631985 51.01869385 512.9647995 49.33811712 512.96328449 C48.51150697 512.96252668 47.68489682 512.96176886 46.83323787 512.96098809 C41.03862727 512.95626706 35.24404021 512.95808099 29.44942999 512.96234989 C22.38036523 512.96730058 15.31140722 512.96118546 8.24236676 512.9414556 C4.6433209 512.93165439 1.04443681 512.92639989 -2.5546174 512.93434811 C-40.67826644 513.00944747 -71.94998747 503.78353031 -99.56011438 476.52289867 C-113.96904188 462.13709947 -124.42931063 443.19300078 -129.56011438 423.52289867 C-129.80874766 422.64301155 -130.05738094 421.76312443 -130.31354856 420.85657406 C-133.4667067 407.8564129 -132.996056 394.65785078 -132.96694744 381.35936737 C-132.96217396 377.67822932 -132.97476225 373.99714142 -132.98496485 370.31602001 C-133.002078 363.12271497 -133.00300838 355.92949757 -132.99775194 348.73617747 C-132.99369444 342.88285664 -132.99517247 337.0295615 -133.0005002 331.17624187 C-133.00124862 330.34005014 -133.00199705 329.50385841 -133.00276815 328.64232753 C-133.00429979 326.94305143 -133.00583813 325.24377534 -133.00738312 323.54449925 C-133.02108147 307.64232011 -133.0156896 291.7401903 -133.0041979 275.83801231 C-132.99427169 261.32793415 -133.00720036 246.81798362 -133.03113209 232.30792513 C-133.05558583 217.36745133 -133.06511539 202.42703681 -133.05847937 187.48654342 C-133.05500061 179.11527497 -133.0571296 170.74410455 -133.0747304 162.37285137 C-133.08953129 155.24554769 -133.08998594 148.11841104 -133.07265949 140.99111035 C-133.06421078 137.36332038 -133.06184706 133.73582777 -133.07731104 130.10805416 C-133.15270224 111.06657909 -132.43781951 93.03781239 -124.87261438 75.27289867 C-124.53012659 74.44846264 -124.1876388 73.6240266 -123.83477259 72.77460766 C-118.09841094 59.37505853 -110.36396641 48.24407019 -100.56011438 37.52289867 C-99.84339563 36.72367992 -99.12667688 35.92446117 -98.38823938 35.10102367 C-87.69874651 23.76855379 -74.6865254 15.81699132 -60.56011438 9.52289867 C-59.50566126 9.0407893 -58.45120813 8.55867992 -57.36480188 8.06196117 C-38.90226986 0.2708671 -19.73852959 -0.07368225 0 0 Z " fill="#242938" transform="translate(276.5601143836975,143.47710132598877)"/>
<path d="M0 0 C0.75323036 -0.00679667 1.50646072 -0.01359334 2.28251624 -0.02059597 C4.80817416 -0.0395965 7.33334831 -0.03712934 9.85906982 -0.03465271 C11.66932297 -0.04362862 13.47957036 -0.05383648 15.28981018 -0.06518555 C20.2094057 -0.09171046 25.12884472 -0.09872016 30.04850483 -0.10063291 C34.15621589 -0.10348116 38.26389049 -0.11451747 42.37158751 -0.12514919 C52.06518764 -0.14958596 61.75870416 -0.15690176 71.45233154 -0.1547699 C81.44764204 -0.15296847 91.44246631 -0.18460426 101.43765378 -0.23200089 C110.02125114 -0.27125154 118.60468978 -0.28732053 127.18837619 -0.28540367 C132.31398268 -0.28463925 137.43915736 -0.29316195 142.56467438 -0.32493782 C147.38790217 -0.35402222 152.2102867 -0.35419198 157.03354454 -0.33238792 C158.80078808 -0.32925512 160.56808447 -0.33631151 162.3352375 -0.3544693 C178.46995781 -0.50947678 178.46995781 -0.50947678 184.16378403 4.8151865 C184.62107014 5.3385506 185.07835625 5.86191469 185.54949951 6.40113831 C186.23758886 7.16555315 186.23758886 7.16555315 186.93957901 7.94541073 C188.1814141 9.39859286 189.36711304 10.89918793 190.54949951 12.40113831 C192.20317413 14.08069653 193.87216082 15.74521244 195.54949951 17.40113831 C196.57934709 18.44031331 197.60794058 19.48073227 198.63543701 20.52223206 C205.37641334 27.41152564 205.37641334 27.41152564 212.54949951 33.83863831 C215.62414517 36.46489814 217.96573591 39.30062199 220.54949951 42.40113831 C221.65670705 43.37997396 222.78297386 44.33755055 223.92449951 45.27613831 C227.27650284 48.04770816 229.98457926 51.14520096 232.79168701 54.45582581 C234.9865985 56.88486118 237.40851451 58.89632841 239.93231201 60.97145081 C242.43481646 63.18380981 244.41401474 65.83855659 246.54949951 68.40113831 C248.39242436 70.02383943 250.27033389 71.57843125 252.19403076 73.10426331 C252.64133545 73.53223206 253.08864014 73.96020081 253.54949951 74.40113831 C253.54949951 75.06113831 253.54949951 75.72113831 253.54949951 76.40113831 C254.20949951 76.40113831 254.86949951 76.40113831 255.54949951 76.40113831 C255.64100773 110.60203876 255.71151415 144.80291131 255.75376083 179.0039077 C255.7587638 183.03947565 255.76394107 187.07504337 255.76922607 191.11061096 C255.77027532 191.91403709 255.77132456 192.71746323 255.77240559 193.5452356 C255.78982207 206.56292181 255.82136657 219.58053752 255.8581107 232.59818187 C255.8954856 245.95042331 255.91772804 259.30262778 255.92585349 272.65491939 C255.93134845 280.89741511 255.94871833 289.13971162 255.98116538 297.38214603 C256.00227072 303.03038848 256.00870863 308.67852759 256.00350502 314.32680663 C256.00093696 317.58813755 256.00710851 320.84904507 256.02632141 324.11033058 C256.04611959 327.64311545 256.04147514 331.17503657 256.03051758 334.70783997 C256.04216894 335.74285369 256.05382031 336.77786742 256.06582475 337.8442452 C256.00741601 344.77477967 256.00741601 344.77477967 253.64443588 348.00696945 C250.59230028 350.03814923 248.91924252 350.52703654 245.29088211 350.53535938 C244.39188415 350.53981723 243.49288619 350.54427507 242.56664586 350.548868 C241.5726996 350.54868364 240.57875334 350.54849928 239.5546875 350.54830933 C238.50365554 350.55198601 237.45262357 350.5556627 236.36974216 350.55945081 C232.8245132 350.57052227 229.27931351 350.57433733 225.73406982 350.57814026 C223.20166937 350.58440226 220.66926985 350.59104882 218.13687134 350.59805298 C210.52025978 350.61730614 202.90365335 350.62788497 195.28702366 350.63678077 C191.70148769 350.6411623 188.1159532 350.64652947 184.5304184 350.65176964 C172.61329581 350.66878316 160.69617416 350.68327761 148.77904129 350.69051838 C145.68560027 350.69242832 142.59215925 350.69434865 139.49871826 350.69630432 C138.72984452 350.69678806 137.96097077 350.6972718 137.16879782 350.6977702 C124.71193591 350.70607152 112.25516999 350.73140955 99.79835001 350.763885 C87.01329548 350.79694479 74.22828975 350.81496617 61.44319224 350.81816262 C54.26316677 350.82032877 47.08328127 350.82909258 39.90329742 350.85462379 C33.14982641 350.87858267 26.39665105 350.88216329 19.64313126 350.87186241 C17.16230304 350.8713654 14.68146267 350.87773412 12.20067215 350.89141846 C8.81755837 350.90903814 5.43535955 350.90207934 2.05224609 350.8888855 C0.57471104 350.90533937 0.57471104 350.90533937 -0.93267322 350.92212564 C-4.99929455 350.88375514 -8.18041728 350.49058911 -12.06182671 349.20507717 C-16.10804849 344.45542965 -15.25258174 339.07626627 -15.17202759 333.05036926 C-15.17464347 331.64860259 -15.1798959 330.24683877 -15.18756258 328.84509063 C-15.20100225 324.98861998 -15.17694909 321.13314591 -15.14689422 317.2768023 C-15.12102363 313.12005123 -15.12974881 308.96335799 -15.13430786 304.80654907 C-15.13745655 297.6031636 -15.11860508 290.40010378 -15.08488083 283.19680023 C-15.03615297 272.78204406 -15.0204957 262.36744563 -15.01295288 251.95258781 C-14.99981566 235.05595414 -14.95987129 218.15949409 -14.90313721 201.26295471 C-14.84807716 184.8479245 -14.80559972 168.43294142 -14.78009033 152.01783752 C-14.77851399 151.00629692 -14.77693765 149.99475631 -14.77531354 148.95256296 C-14.76748341 143.87804564 -14.75990114 138.80352798 -14.75244212 133.72901011 C-14.69022483 91.61959871 -14.58453108 49.51037843 -14.45050049 7.40113831 C-13.79050049 7.40113831 -13.13050049 7.40113831 -12.45050049 7.40113831 C-12.36800049 6.80301331 -12.28550049 6.20488831 -12.20050049 5.58863831 C-10.24216754 -0.12316612 -5.26537266 -0.03481045 0 0 Z " fill="#E8E8DE" transform="translate(280.45050048828125,220.59886169433594)"/>
<path d="M0 0 C0.33 0 0.66 0 1 0 C1.09150822 34.20090045 1.16201464 68.40177301 1.20426132 102.60276939 C1.20926429 106.63833735 1.21444156 110.67390506 1.21972656 114.70947266 C1.2207758 115.51289879 1.22182505 116.31632492 1.22290608 117.1440973 C1.24032256 130.1617835 1.27186706 143.17939921 1.30861118 156.19704357 C1.34598609 169.54928501 1.36822853 182.90148947 1.37635398 196.25378108 C1.38184894 204.4962768 1.39921882 212.73857331 1.43166587 220.98100773 C1.45277121 226.62925018 1.45920912 232.27738929 1.45400551 237.92566833 C1.45143745 241.18699925 1.457609 244.44790676 1.4768219 247.70919228 C1.49662007 251.24197715 1.49197562 254.77389827 1.48101807 258.30670166 C1.49266943 259.34171539 1.5043208 260.37672911 1.51632524 261.44310689 C1.45791649 268.37364136 1.45791649 268.37364136 -0.90506363 271.60583115 C-3.96098114 273.63952776 -5.63122952 274.12535691 -9.26420403 274.12863445 C-10.61455107 274.13347112 -10.61455107 274.13347112 -11.99217784 274.1384055 C-12.98748834 274.1368569 -13.98279884 274.1353083 -15.00827026 274.13371277 C-16.58693491 274.1371111 -16.58693491 274.1371111 -18.19749177 274.14057809 C-21.74739478 274.14694165 -25.29725985 274.14608722 -28.84716797 274.14526367 C-31.38281301 274.1482537 -33.91845759 274.15165586 -36.45410156 274.15544128 C-42.64082098 274.16337994 -48.82752635 274.16649664 -55.01425038 274.16705366 C-60.04182102 274.16752832 -65.06938852 274.16958052 -70.09695816 274.17275429 C-84.34196314 274.18156413 -98.58696057 274.18617318 -112.83196829 274.18542381 C-113.60043145 274.18538386 -114.36889461 274.1853439 -115.16064453 274.18530273 C-115.9300429 274.18526185 -116.69944126 274.18522097 -117.49215473 274.18517885 C-129.96326783 274.18477235 -142.43435074 274.1943422 -154.9054551 274.2084411 C-167.70180031 274.22279387 -180.49813079 274.22971188 -193.29448426 274.22884732 C-200.4822232 274.22851496 -207.6699305 274.23127918 -214.8576622 274.24202538 C-221.615993 274.25206457 -228.37424575 274.25180628 -235.13258362 274.24450874 C-237.61746951 274.24345914 -240.1023595 274.24584789 -242.58723831 274.2518692 C-245.97082623 274.25953913 -249.3541799 274.25497751 -252.73776245 274.24723816 C-253.72861151 274.25238172 -254.71946056 274.25752529 -255.74033535 274.26282471 C-256.6457822 274.25822592 -257.55122905 274.25362712 -258.48411369 274.24888897 C-259.6558233 274.24921502 -259.6558233 274.24921502 -260.8512038 274.24954766 C-263.33486149 273.9611113 -264.91268313 273.37408209 -267 272 C-277.96306932 239.11079204 -268 202.66826919 -268 168 C-179.56 168 -91.12 168 0 168 C0 112.56 0 57.12 0 0 Z " fill="#F19C21" transform="translate(535,297)"/>
<path d="M0 0 C0.75323036 -0.00679667 1.50646072 -0.01359334 2.28251624 -0.02059597 C4.80817416 -0.0395965 7.33334831 -0.03712934 9.85906982 -0.03465271 C11.66932297 -0.04362862 13.47957036 -0.05383648 15.28981018 -0.06518555 C20.2094057 -0.09171046 25.12884472 -0.09872016 30.04850483 -0.10063291 C34.15621589 -0.10348116 38.26389049 -0.11451747 42.37158751 -0.12514919 C52.06518764 -0.14958596 61.75870416 -0.15690176 71.45233154 -0.1547699 C81.44764204 -0.15296847 91.44246631 -0.18460426 101.43765378 -0.23200089 C110.02125114 -0.27125154 118.60468978 -0.28732053 127.18837619 -0.28540367 C132.31398268 -0.28463925 137.43915736 -0.29316195 142.56467438 -0.32493782 C147.38790217 -0.35402222 152.2102867 -0.35419198 157.03354454 -0.33238792 C158.80078808 -0.32925512 160.56808447 -0.33631151 162.3352375 -0.3544693 C178.46995781 -0.50947678 178.46995781 -0.50947678 184.16378403 4.8151865 C184.62107014 5.3385506 185.07835625 5.86191469 185.54949951 6.40113831 C186.23758886 7.16555315 186.23758886 7.16555315 186.93957901 7.94541073 C188.1814141 9.39859286 189.36711304 10.89918793 190.54949951 12.40113831 C192.20317413 14.08069653 193.87216082 15.74521244 195.54949951 17.40113831 C196.57934709 18.44031331 197.60794058 19.48073227 198.63543701 20.52223206 C205.37641334 27.41152564 205.37641334 27.41152564 212.54949951 33.83863831 C215.62414517 36.46489814 217.96573591 39.30062199 220.54949951 42.40113831 C221.65670705 43.37997396 222.78297386 44.33755055 223.92449951 45.27613831 C227.27650284 48.04770816 229.98457926 51.14520096 232.79168701 54.45582581 C234.9865985 56.88486118 237.40851451 58.89632841 239.93231201 60.97145081 C242.43481646 63.18380981 244.41401474 65.83855659 246.54949951 68.40113831 C248.35846702 70.02457069 250.20658008 71.57599476 252.09637451 73.10426331 C253.54949951 74.40113831 253.54949951 74.40113831 254.54949951 76.40113831 C254.6440203 78.60562324 254.67139822 80.81306727 254.66975403 83.01957703 C254.67061005 83.7056604 254.67146606 84.39174377 254.67234802 85.09861755 C254.67400948 87.41579242 254.66846945 89.73289577 254.6630249 92.05006409 C254.66271873 93.73237544 254.66285179 95.41468692 254.66339016 97.09699821 C254.66361648 101.61356549 254.65780888 106.13010643 254.65077972 110.64666748 C254.64509658 114.88049912 254.64481725 119.11432426 254.644104 123.34815979 C254.63885083 135.7408228 254.62488976 148.13348088 254.61199951 160.52613831 C254.59137451 188.20488831 254.57074951 215.88363831 254.54949951 244.40113831 C166.10949951 244.40113831 77.66949951 244.40113831 -13.45050049 244.40113831 C-13.12050049 278.39113831 -12.79050049 312.38113831 -12.45050049 347.40113831 C-13.11050049 347.07113831 -13.77050049 346.74113831 -14.45050049 346.40113831 C-14.45050049 234.53113831 -14.45050049 122.66113831 -14.45050049 7.40113831 C-13.79050049 7.40113831 -13.13050049 7.40113831 -12.45050049 7.40113831 C-12.36800049 6.80301331 -12.28550049 6.20488831 -12.20050049 5.58863831 C-10.24216754 -0.12316612 -5.26537266 -0.03481045 0 0 Z M-11.45050049 7.40113831 C-13.10380871 10.22670796 -13.70012171 12.25188876 -13.69659615 15.5165596 C-13.70057789 16.33292641 -13.70455963 17.14929321 -13.70866203 17.99039841 C-13.7028367 18.88119221 -13.69701138 19.77198601 -13.69100952 20.68977356 C-13.69272156 21.63828186 -13.69443359 22.58679016 -13.69619751 23.56404114 C-13.69951433 26.76014156 -13.68845034 29.95603352 -13.67755127 33.15211487 C-13.67693878 35.47545744 -13.67720528 37.79880039 -13.67828178 40.12214279 C-13.67873403 46.35411937 -13.66712713 52.58601942 -13.65306091 58.81797791 C-13.6416863 64.66194403 -13.6411355 70.50589138 -13.63970947 76.34986877 C-13.62920726 93.45030212 -13.60128506 110.55072117 -13.57550049 127.65113831 C-13.53425049 165.84863831 -13.49300049 204.04613831 -13.45050049 243.40113831 C74.65949951 243.40113831 162.76949951 243.40113831 253.54949951 243.40113831 C253.57012451 216.42363831 253.59074951 189.44613831 253.61199951 161.65113831 C253.62565552 148.86283264 253.62565552 148.86283264 253.6395874 135.81617737 C253.64293135 128.18943807 253.64293135 128.18943807 253.64494324 120.56269836 C253.64587677 117.15953421 253.64963177 113.75638558 253.65507507 110.35322571 C253.66192191 106.0152756 253.66399292 101.67734815 253.66257179 97.33939314 C253.66286906 95.74549848 253.6648592 94.15160305 253.66871464 92.55771303 C253.67367425 90.40785671 253.67249463 88.25808886 253.66975403 86.10823059 C253.67067582 84.90252537 253.67159761 83.69682014 253.67254734 82.4545784 C253.64535793 79.20862404 253.64535793 79.20862404 252.54949951 75.40113831 C228.78949951 75.07113831 205.02949951 74.74113831 180.54949951 74.40113831 C180.11199951 38.96363831 180.11199951 38.96363831 179.98138428 27.75880432 C179.93814862 24.45501593 179.93814862 24.45501593 179.89360046 21.15124512 C179.87433264 19.67547827 179.85702183 18.19968511 179.8412323 16.72387695 C179.81699188 14.49324591 179.78661434 12.26277624 179.75482178 10.03224182 C179.7392775 8.77315506 179.72373322 7.5140683 179.7077179 6.21682739 C179.86863147 3.49816289 179.86863147 3.49816289 178.54949951 2.40113831 C176.17031793 2.29241581 173.81972184 2.24889861 171.4395752 2.24723816 C170.68679141 2.24285591 169.93400763 2.23847365 169.15841222 2.2339586 C166.61657171 2.22052221 164.0747659 2.21438092 161.53289795 2.20826721 C159.7182245 2.20037 157.90355263 2.19210129 156.08888245 2.18348694 C150.11222849 2.15722102 144.13556737 2.141954 138.15887451 2.12770081 C136.10446416 2.12234286 134.05005386 2.11696536 131.99564362 2.11156845 C123.45157352 2.08993234 114.90750534 2.07119466 106.36341476 2.05994606 C94.10374591 2.04370187 81.84439378 2.010521 69.58484435 1.95354521 C60.97335225 1.91488362 52.36194499 1.89531781 43.75036836 1.8900255 C38.60304528 1.88636662 33.45605965 1.87428876 28.30883026 1.84192276 C23.46606747 1.81190894 18.62384747 1.80550635 13.78101158 1.81730652 C12.00282712 1.81752782 10.22461798 1.80917606 8.44651985 1.79165268 C6.01947554 1.76903472 3.59441167 1.77721994 1.1673584 1.7931366 C0.46277929 1.77925451 -0.24179982 1.76537242 -0.96772981 1.75106966 C-6.15723445 1.83498819 -8.27762169 3.39680504 -11.45050049 7.40113831 Z " fill="#D6D3C5" transform="translate(280.45050048828125,220.59886169433594)"/>
<path d="M0 0 C4.29 0 8.58 0 13 0 C13.5775 2.02125 14.155 4.0425 14.75 6.125 C16.26798611 11.09734319 18.05086351 14.71899542 21 19 C21.52394719 20.56908396 21.99869283 22.1550099 22.4375 23.75 C23.93194048 29.16118834 26.06406335 34.20366784 29 39 C29.66 39.33 30.32 39.66 31 40 C31.10570312 39.4946875 31.21140625 38.989375 31.3203125 38.46875 C32.26156104 35.04996222 33.56537105 31.79004346 34.875 28.5 C35.25978516 27.50419922 35.25978516 27.50419922 35.65234375 26.48828125 C37.07570699 22.90483912 38.6658736 20.0416378 41 17 C41.76681725 14.88735364 41.76681725 14.88735364 42.1875 12.75 C42.455625 11.5125 42.72375 10.275 43 9 C43.66 9 44.32 9 45 9 C45.309375 7.88625 45.61875 6.7725 45.9375 5.625 C47 2 47 2 48 0 C51.63 0 55.26 0 59 0 C59 20.79 59 41.58 59 63 C55.37 63 51.74 63 48 63 C47.67 51.12 47.34 39.24 47 27 C42.08245 34.9360024 42.08245 34.9360024 41 40 C40.34 40 39.68 40 39 40 C39.04125 40.71542969 39.0825 41.43085937 39.125 42.16796875 C38.98639687 45.30819586 38.22896491 47.43211348 37 50.3125 C36.62875 51.19550781 36.2575 52.07851563 35.875 52.98828125 C35.58625 53.65214844 35.2975 54.31601562 35 55 C31.60048962 55.35033122 28.39159017 55.479942 25 55 C19.89471771 50.40524594 19.80448764 43.54175478 19 37 C18.34 37 17.68 37 17 37 C15.68 33.04 14.36 29.08 13 25 C12.67 37.54 12.34 50.08 12 63 C8.04 63 4.08 63 0 63 C0 42.21 0 21.42 0 0 Z " fill="#FDF5EE" transform="translate(377,489)"/>
<path d="M0 0 C2.22234347 1.65346608 2.92192234 2.5483743 3.3984375 5.3046875 C3.35091621 10.51618872 3.06512684 13.63808872 0 18 C-0.72166191 20.31691454 -1.40059529 22.64848923 -2 25 C-2.66 25 -3.32 25 -4 25 C-4.0928125 26.918125 -4.0928125 26.918125 -4.1875 28.875 C-4.71079264 33.62148533 -6.35995942 36.96875057 -8.59765625 41.1328125 C-12.55049041 49.21465171 -14.98114574 58.04993291 -16.546875 66.87890625 C-17.24089455 70.12763571 -18.62471182 72.98494513 -20 76 C-23.3035517 84.55790764 -26.13168647 93.28926095 -29 102 C-29.66 102 -30.32 102 -31 102 C-31.1340625 102.54269531 -31.268125 103.08539063 -31.40625 103.64453125 C-32.08352138 106.33133811 -32.78516209 109.01043204 -33.5 111.6875 C-33.7578125 112.66074219 -34.015625 113.63398438 -34.28125 114.63671875 C-35 117 -35 117 -36 118 C-42.12145749 118.4534413 -42.12145749 118.4534413 -44.9375 117 C-46.69871949 113.68476331 -46.23609941 110.71856563 -46 107 C-45.505 106.01 -45.505 106.01 -45 105 C-44.34 105 -43.68 105 -43 105 C-42.97421875 104.40574219 -42.9484375 103.81148438 -42.921875 103.19921875 C-42.40298216 95.61630754 -40.40294561 88.80589121 -37 82 C-36.34 82 -35.68 82 -35 82 C-34.67 79.36 -34.34 76.72 -34 74 C-33.34 74 -32.68 74 -32 74 C-31.43019904 71.74767357 -30.88121674 69.49266668 -30.3515625 67.23046875 C-28.99058544 61.53046269 -27.39394079 56.36242737 -25 51 C-23.9534512 47.90091752 -22.95041071 44.790858 -21.96484375 41.671875 C-21 39 -21 39 -19 36 C-18.40260055 33.95294775 -17.86590017 31.88766892 -17.375 29.8125 C-17.11460937 28.72582031 -16.85421875 27.63914062 -16.5859375 26.51953125 C-16.39257812 25.68808594 -16.19921875 24.85664063 -16 24 C-15.34 24 -14.68 24 -14 24 C-13.938125 22.783125 -13.87625 21.56625 -13.8125 20.3125 C-13.1056527 13.87916518 -10.86908734 7.77963547 -8 2 C-4.76746204 -0.15502531 -3.74849077 -0.46856135 0 0 Z " fill="#F1A02E" transform="translate(419,303)"/>
<path d="M0 0 C3.96 0 7.92 0 12 0 C13.30203187 2.49505641 14.59160266 4.99537682 15.875 7.5 C16.23980469 8.19609375 16.60460937 8.8921875 16.98046875 9.609375 C19.39478122 14.35020677 20.88632082 18.79501519 22 24 C22.66 24 23.32 24 24 24 C24 23.34 24 22.68 24 22 C24.66 22 25.32 22 26 22 C26.0825 20.948125 26.165 19.89625 26.25 18.8125 C27.08646839 14.56045235 28.27728192 13.2672617 31 10 C32.14879777 7.6622367 33.16853698 5.29563212 34.16796875 2.890625 C35 1 35 1 36 0 C37.68608966 -0.07205511 39.37500659 -0.08386068 41.0625 -0.0625 C41.98160156 -0.05347656 42.90070313 -0.04445313 43.84765625 -0.03515625 C44.55792969 -0.02355469 45.26820313 -0.01195312 46 0 C46.42351293 4.54238374 45.1728547 6.97251997 42.8125 10.8125 C41.85730469 12.39224609 41.85730469 12.39224609 40.8828125 14.00390625 C39.77086791 15.77332844 38.64587783 17.53485292 37.4921875 19.27734375 C37.06164062 19.92832031 36.63109375 20.57929688 36.1875 21.25 C35.80980469 21.79140625 35.43210937 22.3328125 35.04296875 22.890625 C33.07206279 26.87672694 31.35688035 30.68204993 32.57739258 35.08105469 C33.55276868 37.21328397 34.63500774 39.22263198 35.8125 41.25 C36.57219058 42.62846047 37.32881113 44.00861831 38.08203125 45.390625 C38.42468018 45.98907227 38.7673291 46.58751953 39.12036133 47.20410156 C40 49 40 49 40.49487305 51.16308594 C40.66156494 51.76926758 40.82825684 52.37544922 41 53 C41.99 53.495 41.99 53.495 43 54 C44.62734766 57.34510352 45 59.18835834 45 63 C41.04 63 37.08 63 33 63 C25.80105634 45.12676056 25.80105634 45.12676056 25 40 C24.01 40 23.02 40 22 40 C21.9175 40.804375 21.835 41.60875 21.75 42.4375 C20.20997548 49.75261646 16.37224686 56.37594367 13 63 C9.37 63 5.74 63 2 63 C3.71838152 56.12647391 5.60139324 50.21124683 9 44 C9.66 44 10.32 44 11 44 C11.495 41.03 11.495 41.03 12 38 C12.66 38 13.32 38 14 38 C15.9524665 31.81718942 13.6024635 27.56228021 11 22 C10.51660156 20.95328125 10.03320312 19.9065625 9.53515625 18.828125 C7.10531832 13.75823416 4.98703439 9.97028214 1 6 C0.25 2.75 0.25 2.75 0 0 Z " fill="#FDF7F1" transform="translate(317,489)"/>
<path d="M0 0 C2.03044128 1.43589783 2.03044128 1.43589783 4.02416992 3.47241211 C5.15510323 4.60875343 5.15510323 4.60875343 6.30888367 5.76805115 C7.10800674 6.59611771 7.90712982 7.42418427 8.73046875 8.27734375 C9.56210037 9.11842178 10.39373199 9.95949982 11.25056458 10.82606506 C13.90821907 13.51835796 16.54823137 16.22719168 19.1875 18.9375 C21.84084181 21.64072838 24.4976504 24.34048209 27.15657043 27.03822327 C28.81105197 28.71920272 30.46162083 30.40404352 32.10795593 32.09300232 C32.85245499 32.85371536 33.59695404 33.61442841 34.36401367 34.39819336 C35.01955734 35.07103867 35.67510101 35.74388397 36.35050964 36.43711853 C37.93179292 38.08695675 37.93179292 38.08695675 40 39 C40.51467086 41.79516689 40.66728749 43.28241506 40 46 C37.5391995 49.53048582 34.49823933 52.43423585 31.42578125 55.43359375 C30.54979782 56.31153091 29.67381439 57.18946808 28.77128601 58.0940094 C26.4432035 60.41707234 24.09945358 62.72279828 21.7489624 65.02313232 C20.31217154 66.43782341 18.88761537 67.86371415 17.46704102 69.29467773 C14.73792774 72.04276789 11.99174039 74.7724179 9.23828125 77.49609375 C7.96456413 78.77558144 7.96456413 78.77558144 6.66511536 80.08091736 C5.86466293 80.85915359 5.06421051 81.63738983 4.23950195 82.43920898 C3.54000931 83.12869125 2.84051666 83.81817352 2.11982727 84.52854919 C-0.48413647 86.33605709 -1.89096179 86.38264135 -5 86 C-7.3125 84.875 -7.3125 84.875 -9 83 C-9.53857422 80.35693359 -9.53857422 80.35693359 -9 77 C-7.01195795 74.14895022 -4.56621589 71.82111766 -2.0703125 69.4140625 C-1.36478241 68.71227875 -0.65925232 68.010495 0.06765747 67.28744507 C1.55880462 65.80972519 3.05712165 64.33921017 4.56201172 62.87548828 C6.87351826 60.6264417 9.16285278 58.35660423 11.44921875 56.08203125 C12.89980058 54.6497836 14.35158309 53.21875076 15.8046875 51.7890625 C16.49432587 51.10792389 17.18396423 50.42678528 17.89450073 49.7250061 C18.85527023 48.79305923 18.85527023 48.79305923 19.83544922 47.84228516 C20.39948456 47.29190582 20.9635199 46.74152649 21.54464722 46.17446899 C23 45 23 45 25 45 C24.43909129 41.56074399 23.48973176 40.23340227 20.75 38.125 C17.36514877 35.38684799 14.79103471 32.34924165 12 29 C10.26922243 27.42547318 8.48843911 25.92786176 6.69140625 24.4296875 C2.44136274 20.83727197 -1.14093732 16.7339547 -4.66796875 12.453125 C-5.9579691 10.87220817 -5.9579691 10.87220817 -8 10 C-8.36272727 3.59181818 -8.36272727 3.59181818 -6.8125 1.0625 C-4.34468111 -0.38415245 -2.83269493 -0.30432396 0 0 Z " fill="#F19E2A" transform="translate(438,322)"/>
<path d="M0 0 C2.66455078 0.52758789 2.66455078 0.52758789 4.60205078 2.21508789 C5.96629142 5.18431751 5.57656048 6.42396305 4.66455078 9.52758789 C1.88309999 13.5733345 -1.64182585 17.07785219 -5.46044922 20.15258789 C-8.43934669 22.4646414 -8.43934669 22.4646414 -10.83544922 25.52758789 C-13.33544922 28.52758789 -13.33544922 28.52758789 -16.27294922 30.96508789 C-19.29240481 33.49157114 -21.60453152 36.10339327 -24.03857422 39.17211914 C-24.46654297 39.61942383 -24.89451172 40.06672852 -25.33544922 40.52758789 C-25.99544922 40.52758789 -26.65544922 40.52758789 -27.33544922 40.52758789 C-27.90360628 42.71736851 -27.90360628 42.71736851 -27.33544922 45.52758789 C-25.38618878 48.22040953 -23.01028269 50.45669636 -20.62451172 52.76196289 C-19.94117767 53.44059387 -19.25784363 54.11922485 -18.55380249 54.81842041 C-16.36744808 56.98341975 -14.16406102 59.13017107 -11.96044922 61.27758789 C-10.4828016 62.73873091 -9.00622544 64.20095835 -7.53076172 65.66430664 C-4.82936664 68.33172118 -2.12763535 70.99867186 0.59179688 73.64770508 C1.13806732 74.18111511 1.68433777 74.71452515 2.24716187 75.26409912 C3.6596893 76.63404748 3.6596893 76.63404748 5.66455078 77.52758789 C5.78955078 80.40258789 5.78955078 80.40258789 5.66455078 83.52758789 C3.66455078 85.52758789 3.66455078 85.52758789 0.59741211 86.16992188 C-5.39058222 85.1919336 -8.17960548 81.53505016 -12.26123047 77.25024414 C-13.0900322 76.40916611 -13.91883392 75.56808807 -14.77275085 74.70152283 C-17.41478272 72.01372625 -20.0316703 69.30293683 -22.64794922 66.59008789 C-25.28711704 63.88614638 -27.93113472 61.18703992 -30.57670593 58.48936462 C-32.22091991 56.80920089 -33.86039034 55.12437985 -35.4947052 53.43458557 C-36.23274887 52.67387253 -36.97079254 51.91315948 -37.73120117 51.12939453 C-38.38071243 50.45654922 -39.03022369 49.78370392 -39.69941711 49.09046936 C-41.26764473 47.43879975 -41.26764473 47.43879975 -43.33544922 46.52758789 C-43.83544922 43.46508789 -43.83544922 43.46508789 -43.33544922 39.52758789 C-41.80276489 37.88194275 -41.80276489 37.88194275 -39.77734375 36.26171875 C-35.48958371 32.69411426 -31.63306339 28.85690338 -27.76513672 24.84399414 C-26.36093949 23.40771296 -24.95596917 21.97218726 -23.55029297 20.53735352 C-21.36615273 18.30360738 -19.18704589 16.065774 -17.02050781 13.81494141 C-14.90741178 11.62327486 -12.77580834 9.45113756 -10.64013672 7.28149414 C-9.99623993 6.60349258 -9.35234314 5.92549103 -8.68893433 5.22694397 C-4.14482656 0.65561193 -4.14482656 0.65561193 0 0 Z " fill="#F19C22" transform="translate(360.33544921875,321.472412109375)"/>
<path d="M0 0 C3.96 0 7.92 0 12 0 C12 17.82 12 35.64 12 54 C21.1698291 53.96040482 21.1698291 53.96040482 30.33959961 53.90991211 C31.47405518 53.90741455 32.60851074 53.90491699 33.77734375 53.90234375 C35.52905884 53.89448853 35.52905884 53.89448853 37.31616211 53.88647461 C40 54 40 54 41 55 C41 57.64 41 60.28 41 63 C27.47 63 13.94 63 0 63 C0 42.21 0 21.42 0 0 Z " fill="#FEFEFE" transform="translate(451,489)"/>
<path d="M0 0 C0.75534706 -0.0060911 1.51069411 -0.01218221 2.28893048 -0.01845789 C4.82160282 -0.03511555 7.35377393 -0.03030825 9.88648987 -0.0255127 C11.70160953 -0.03285141 13.51672452 -0.04143706 15.33183289 -0.05117798 C20.26363386 -0.07342294 25.1952679 -0.07632319 30.12711215 -0.07443047 C34.24256029 -0.07431091 38.35797288 -0.08286898 42.47341114 -0.09120798 C52.18127784 -0.1104526 61.88905854 -0.11332193 71.59693909 -0.10656738 C81.6161113 -0.09992462 91.63491553 -0.12279803 101.6540131 -0.15988111 C110.25284846 -0.19055417 118.8515653 -0.20194077 127.45045429 -0.1980443 C132.58764127 -0.19597442 137.72454192 -0.201493 142.86167717 -0.22593689 C147.69221045 -0.24816207 152.52214444 -0.24636152 157.35268021 -0.22600937 C159.1260137 -0.22259187 160.8993872 -0.22772018 162.67266655 -0.24199295 C165.09302712 -0.26013051 167.51134264 -0.24747978 169.93164062 -0.22705078 C170.98543975 -0.24582755 170.98543975 -0.24582755 172.06052774 -0.26498365 C176.01576746 -0.19335955 177.4425592 0.3203713 180.5041666 2.93325043 C181.17246463 3.74543282 181.84076265 4.5576152 182.52931213 5.39440918 C182.02353386 5.06992483 181.51775558 4.74544048 180.9966507 4.41112328 C177.68368904 3.04595399 174.57657198 3.11150882 171.05189514 3.12698364 C170.29584252 3.12245253 169.5397899 3.11792142 168.76082659 3.113253 C166.22591079 3.10058654 163.69120922 3.10223079 161.15626526 3.10388184 C159.33952559 3.0978981 157.52278846 3.09109291 155.70605469 3.08352661 C150.7702164 3.06584644 145.83444744 3.06117046 140.89858055 3.05989504 C136.78056049 3.05799692 132.66255662 3.05064062 128.54454279 3.04355085 C118.83193804 3.02726261 109.11937038 3.0223824 99.40675354 3.02380371 C89.37966668 3.02500615 79.35279472 3.00388484 69.32576227 2.97231638 C60.72185834 2.94619136 52.11802478 2.93543478 43.51408148 2.93671453 C38.37304984 2.93722516 33.23220925 2.93148621 28.09121704 2.91035843 C23.25830295 2.89103883 18.42576344 2.89080835 13.59283638 2.90539169 C11.81746946 2.90748853 10.04207947 2.90272713 8.26675224 2.89067078 C5.84630003 2.87529558 3.42715207 2.88447387 1.00672913 2.89993286 C0.30128354 2.88964574 -0.40416205 2.87935861 -1.13098478 2.86875975 C-4.40737946 2.91512651 -6.17399946 3.16883385 -8.81302643 5.17531395 C-11.85700548 9.25025907 -12.72059722 12.01605874 -12.71678352 17.13403702 C-12.72076562 18.31242213 -12.72474772 19.49080723 -12.72885048 20.70490098 C-12.7230248 22.00060824 -12.71719912 23.2963155 -12.7111969 24.63128662 C-12.71206887 26.02067256 -12.71381968 27.41005819 -12.71637523 28.79944205 C-12.72085455 32.62137544 -12.71283708 36.44319707 -12.70281911 40.26511621 C-12.69419531 44.38505713 -12.69710401 48.50499156 -12.69862366 52.62493896 C-12.69967319 59.76436104 -12.69338948 66.9037466 -12.68214798 74.04315948 C-12.66590516 84.36559178 -12.66068622 94.6880064 -12.658172 105.01045009 C-12.65379298 121.75726157 -12.64047827 138.50405359 -12.62156677 155.25085449 C-12.60321332 171.52038475 -12.5890542 187.78990972 -12.58055115 204.05944824 C-12.5800257 205.06202786 -12.57950025 206.06460748 -12.57895888 207.0975683 C-12.57634884 212.12713367 -12.57382142 217.15669908 -12.57133508 222.18626451 C-12.55059614 263.92232628 -12.51536499 305.65836662 -12.47068787 347.39440918 C-13.13068787 347.06440918 -13.79068787 346.73440918 -14.47068787 346.39440918 C-14.47068787 234.52440918 -14.47068787 122.65440918 -14.47068787 7.39440918 C-13.81068787 7.39440918 -13.15068787 7.39440918 -12.47068787 7.39440918 C-12.38818787 6.79628418 -12.30568787 6.19815918 -12.22068787 5.58190918 C-10.25899935 -0.13968232 -5.27187034 -0.0398547 0 0 Z " fill="#99948C" transform="translate(280.47068786621094,220.6055908203125)"/>
<path d="M0 0 C0.33 0 0.66 0 1 0 C1.09150822 34.20090045 1.16201464 68.40177301 1.20426132 102.60276939 C1.20926429 106.63833735 1.21444156 110.67390506 1.21972656 114.70947266 C1.2207758 115.51289879 1.22182505 116.31632492 1.22290608 117.1440973 C1.24032256 130.1617835 1.27186706 143.17939921 1.30861118 156.19704357 C1.34598609 169.54928501 1.36822853 182.90148947 1.37635398 196.25378108 C1.38184894 204.4962768 1.39921882 212.73857331 1.43166587 220.98100773 C1.45277121 226.62925018 1.45920912 232.27738929 1.45400551 237.92566833 C1.45143745 241.18699925 1.457609 244.44790676 1.4768219 247.70919228 C1.49662007 251.24197715 1.49197562 254.77389827 1.48101807 258.30670166 C1.49266943 259.34171539 1.5043208 260.37672911 1.51632524 261.44310689 C1.45791649 268.37364136 1.45791649 268.37364136 -0.90506363 271.60583115 C-3.96680257 273.6434019 -5.63523503 274.12481317 -9.27537727 274.12304783 C-10.17807543 274.12503888 -11.08077358 274.12702993 -12.01082623 274.12908131 C-13.00886521 274.12616847 -14.00690418 274.12325563 -15.03518677 274.12025452 C-16.09045213 274.12110894 -17.14571748 274.12196337 -18.23296058 274.12284368 C-21.79220548 274.12449941 -25.35140393 274.11897557 -28.91064453 274.11352539 C-31.45277912 274.11324351 -33.9949138 274.11340126 -36.53704834 274.1139679 C-42.02204104 274.1141961 -47.50701862 274.11134765 -52.99200821 274.10573006 C-60.92244208 274.09761317 -68.8528702 274.09499964 -76.78330778 274.09374207 C-89.6489988 274.09155184 -102.5146835 274.08489256 -115.38037109 274.07543945 C-127.88037077 274.06626457 -140.38036873 274.05918411 -152.88037109 274.05493164 C-153.65049051 274.05466892 -154.42060992 274.05440619 -155.21406628 274.05413551 C-159.07741539 274.0528305 -162.9407645 274.05156678 -166.80411363 274.05032361 C-198.86941369 274.03995192 -230.93470597 274.02233441 -263 274 C-263 273.67 -263 273.34 -263 273 C-262.45695524 272.99826375 -261.91391048 272.9965275 -261.35440981 272.99473864 C-229.19668147 272.89179665 -197.0389752 272.78370285 -164.88128719 272.66888306 C-161.02339733 272.65511285 -157.1655073 272.64138584 -153.30761719 272.62768555 C-152.53955381 272.62495724 -151.77149044 272.62222894 -150.98015241 272.61941796 C-138.53021521 272.5752966 -126.08026889 272.53467896 -113.63031574 272.49534739 C-100.863412 272.45493686 -88.09652522 272.41078144 -75.32964647 272.36312145 C-67.44653943 272.33381194 -59.56343371 272.30745256 -51.68030463 272.28482103 C-45.64397982 272.2671792 -39.60768635 272.24433686 -33.57138634 272.21950912 C-31.08889414 272.21012381 -28.60639482 272.20245389 -26.12389183 272.19658089 C-22.74829958 272.18834481 -19.37278665 272.17407526 -15.9972229 272.15821838 C-15.00307487 272.15724028 -14.00892684 272.15626217 -12.98465312 272.15525442 C-12.08543836 272.14977998 -11.1862236 272.14430554 -10.2597599 272.1386652 C-9.08984157 272.13467814 -9.08984157 272.13467814 -7.89628851 272.13061053 C-5.9115546 272.11606762 -5.9115546 272.11606762 -4 271 C-1.62788569 267.49832771 -1.73140455 264.27075196 -1.69702148 260.12402344 C-1.68856233 259.42416667 -1.68010317 258.7243099 -1.67138767 258.00324535 C-1.64515172 255.62194668 -1.63320186 253.2407847 -1.62109375 250.859375 C-1.60504093 249.10493743 -1.58816752 247.35050722 -1.57055664 245.59608459 C-1.52405306 240.6897338 -1.49039179 235.78336249 -1.45881271 230.8768959 C-1.43023106 226.68353652 -1.39429014 222.49025366 -1.35830784 218.29695225 C-1.22165176 202.32519767 -1.11728109 186.35324753 -1.01525879 170.38124371 C-0.99390983 167.04958509 -0.97230323 163.71792815 -0.95070785 160.38627112 C-0.60431024 106.92434904 -0.29209641 53.46224442 0 0 Z " fill="#916C42" transform="translate(535,297)"/>
<path d="M0 0 C3.96 0 7.92 0 12 0 C12 17.82 12 35.64 12 54 C21.1698291 53.96040482 21.1698291 53.96040482 30.33959961 53.90991211 C31.47405518 53.90741455 32.60851074 53.90491699 33.77734375 53.90234375 C35.52905884 53.89448853 35.52905884 53.89448853 37.31616211 53.88647461 C40 54 40 54 41 55 C41 57.64 41 60.28 41 63 C27.47 63 13.94 63 0 63 C0 42.21 0 21.42 0 0 Z M2 1 C2 21.13 2 41.26 2 62 C14.21 62 26.42 62 39 62 C39 60.02 39 58.04 39 56 C25.14 55.505 25.14 55.505 11 55 C10.67 37.18 10.34 19.36 10 1 C7.36 1 4.72 1 2 1 Z " fill="#F9D9BE" transform="translate(451,489)"/>
<path d="M0 0 C0 0.33 0 0.66 0 1 C-1.65 1 -3.3 1 -5 1 C-5.2578125 1.58247498 -5.515625 2.16494995 -5.78125 2.76507568 C-7.1039569 5.19063451 -8.55128454 6.80514441 -10.5 8.75878906 C-11.57121094 9.83945648 -11.57121094 9.83945648 -12.6640625 10.94195557 C-13.82035156 12.09217194 -13.82035156 12.09217194 -15 13.265625 C-15.79148437 14.05902283 -16.58296875 14.85242065 -17.3984375 15.66986084 C-19.07045737 17.34324054 -20.74500097 19.01410181 -22.421875 20.68261719 C-24.99712398 23.24713597 -27.56151052 25.82216989 -30.125 28.3984375 C-31.74935884 30.02147527 -33.37433769 31.64389281 -35 33.265625 C-35.77085937 34.04053284 -36.54171875 34.81544067 -37.3359375 35.61383057 C-38.05007813 36.32166687 -38.76421875 37.02950317 -39.5 37.75878906 C-40.44359375 38.69999603 -40.44359375 38.69999603 -41.40625 39.66021729 C-43 41 -43 41 -45 41 C-45 42.65 -45 44.3 -45 46 C-45.33 46 -45.66 46 -46 46 C-46.5 42.9375 -46.5 42.9375 -46 39 C-44.46731567 37.35435486 -44.46731567 37.35435486 -42.44189453 35.73413086 C-38.1541345 32.16652637 -34.29761417 28.32931549 -30.4296875 24.31640625 C-29.02549028 22.88012507 -27.62051996 21.44459937 -26.21484375 20.00976562 C-24.03070351 17.77601949 -21.85159667 15.53818611 -19.68505859 13.28735352 C-17.57196257 11.09568697 -15.44035912 8.92354967 -13.3046875 6.75390625 C-12.66079071 6.07590469 -12.01689392 5.39790314 -11.35348511 4.69935608 C-7.64986017 0.9735423 -5.55612514 -0.92210985 0 0 Z " fill="#F1A546" transform="translate(363,322)"/>
<path d="M0 0 C0.33 0 0.66 0 1 0 C1.06939343 13.13418918 1.12275697 26.26833501 1.15543652 39.40266991 C1.17111802 45.50093416 1.1924016 51.59907336 1.22631836 57.69726562 C1.25882319 63.57814393 1.27683428 69.45890165 1.28463173 75.33986282 C1.29019122 77.5878451 1.30104695 79.83582049 1.31719017 82.08375168 C1.33884636 85.22313651 1.34197187 88.36201781 1.34057617 91.50146484 C1.35675491 92.9073159 1.35675491 92.9073159 1.3732605 94.34156799 C1.36913651 95.19414688 1.36501251 96.04672577 1.36076355 96.92514038 C1.36352893 97.66810553 1.36629431 98.41107067 1.36914349 99.17654991 C1 101 1 101 -2 103 C-1.83826325 102.42743847 -1.67652651 101.85487694 -1.50988865 101.26496506 C-1.00405479 99.0180117 -0.86220281 97.05940157 -0.84178162 94.76055908 C-0.8319928 93.92205917 -0.82220398 93.08355927 -0.81211853 92.21965027 C-0.80636307 91.30830826 -0.8006076 90.39696625 -0.79467773 89.45800781 C-0.78477814 88.49182022 -0.77487854 87.52563263 -0.76467896 86.53016663 C-0.73310158 83.33784431 -0.70832131 80.14550712 -0.68359375 76.953125 C-0.66302098 74.73923354 -0.64202442 72.52534598 -0.62062073 70.3114624 C-0.56543344 64.48524128 -0.51600937 58.6589849 -0.46777344 52.83270264 C-0.41753405 46.88713443 -0.3618607 40.94161741 -0.30664062 34.99609375 C-0.19909992 23.33077289 -0.09764582 11.66540759 0 0 Z " fill="#C48438" transform="translate(534,465)"/>
<path d="M0 0 C0.6875 1.5625 0.6875 1.5625 1 4 C0.34021152 5.68246063 -0.33273858 7.36242221 -1.10546875 8.99609375 C-2.40747196 11.91280835 -3.31064871 14.93610769 -4.25390625 17.984375 C-5 20 -5 20 -7 23 C-6.57576464 14.51529276 -3.77938248 7.55876497 0 0 Z " fill="#EDC69D" transform="translate(393,354)"/>
<path d="M0 0 C2.12508244 3.18762365 2.5020163 5.26512223 3 9 C-0.96 9 -4.92 9 -9 9 C-9.66 7.02 -10.32 5.04 -11 3 C-10.01 3.495 -10.01 3.495 -9 4 C-9 4.66 -9 5.32 -9 6 C-8.34 6 -7.68 6 -7 6 C-7 6.66 -7 7.32 -7 8 C-4.36 8 -1.72 8 1 8 C0.67 5.36 0.34 2.72 0 0 Z " fill="#F9DBC1" transform="translate(359,543)"/>
<path d="M0 0 C0 3.63053243 -1.2278255 4.95750337 -3.5546875 7.63671875 C-5.49136818 9.46347972 -7.46012234 10.27432067 -10 11 C-6.79239749 7.19364503 -3.59253891 3.45436433 0 0 Z " fill="#ECD0B1" transform="translate(462,383)"/>
<path d="M0 0 C2.8045156 1.4022578 3.0442118 3.06070622 4.1875 5.9375 C4.55230469 6.83339844 4.91710937 7.72929687 5.29296875 8.65234375 C6 11 6 11 5 13 C1.68441485 8.61487125 0.45003347 5.62541841 0 0 Z " fill="#F7CAA0" transform="translate(332,497)"/>
<path d="M0 0 C3.32604248 1.66302124 3.80042476 4.62976481 5 8 C4.6875 10.4375 4.6875 10.4375 4 12 C1.24331998 8.04476345 0.4682121 4.77576339 0 0 Z " fill="#F6C698" transform="translate(397,531)"/>
</svg>
